<svg id="a6d4aa7d-066e-4480-9afa-bda7c2fb019e" data-name="Calque 1" xmlns="http://www.w3.org/2000/svg" viewBox="0 0 560 188"><path d="M287,99.15a16.61,16.61,0,0,0-4.84,1.42,8.87,8.87,0,0,0-3.25,2.57,6,6,0,0,0-1.21,3.78,6.31,6.31,0,0,0,2.47,5.15,9.77,9.77,0,0,0,6.35,2,21.91,21.91,0,0,0,6.67-1,32.38,32.38,0,0,0,6.68-3V98.73H293A39.69,39.69,0,0,0,287,99.15Z" style="fill:none"/><path d="M498,79.45a16.47,16.47,0,0,0-10.34-3.52,16.11,16.11,0,0,0-10.19,3.52,18.3,18.3,0,0,0-6.31,9.3h33.2A18.21,18.21,0,0,0,498,79.45Z" style="fill:none"/><path d="M287,99.15a16.61,16.61,0,0,0-4.84,1.42,8.87,8.87,0,0,0-3.25,2.57,6,6,0,0,0-1.21,3.78,6.31,6.31,0,0,0,2.47,5.15,9.77,9.77,0,0,0,6.35,2,21.91,21.91,0,0,0,6.67-1,32.38,32.38,0,0,0,6.68-3V98.73H293A39.69,39.69,0,0,0,287,99.15Z" style="fill:#e64896"/><path d="M0,0V188H560V0ZM161.48,79.16a31.65,31.65,0,0,1-10.07,23.16L113.2,138a8.6,8.6,0,0,1-11.71,0L63.27,102.32A31.67,31.67,0,0,1,53.21,79.16h0V77.93a30.23,30.23,0,0,1,51.6-21.37l2.53,2.53,2.35-2.53a30.76,30.76,0,0,1,26.54-8.44,30.22,30.22,0,0,1,25.25,29.81Zm70,49.09a32.48,32.48,0,0,1-1.63,10.66,20,20,0,0,1-4.62,7.67,16.31,16.31,0,0,1-7.36,4.2,21.7,21.7,0,0,1-9.72.26l-5-14.18a18,18,0,0,0,4.68.84,8.68,8.68,0,0,0,4.2-.78,6.92,6.92,0,0,0,3-3,12.33,12.33,0,0,0,1.16-5.88V64.27h15.34Zm.21-74.49H216V38h15.76Zm25.63-.21a15.33,15.33,0,0,1-.74,4.78,12.15,12.15,0,0,1-2.15,4,10,10,0,0,1-3.57,2.73,11.85,11.85,0,0,1-5,1,9.9,9.9,0,0,1-2.05-.21c-.67-.14-1.28-.28-1.84-.42V64.27A7.91,7.91,0,0,0,247,61.43a8.19,8.19,0,0,0,1.89-5.35,9.47,9.47,0,0,0-.11-1.27,5.81,5.81,0,0,0-.31-1.26H241.7V37.9h15.65ZM315,125.1H299.9v-3.26a25.12,25.12,0,0,1-8.46,3.78,40,40,0,0,1-9.19,1,23.13,23.13,0,0,1-8-1.31,18.17,18.17,0,0,1-6.2-3.78,16.93,16.93,0,0,1-4-5.83,18.93,18.93,0,0,1-1.42-7.46,17.31,17.31,0,0,1,2.26-9A19.29,19.29,0,0,1,271,92.9a28.37,28.37,0,0,1,9.08-3.84,47.47,47.47,0,0,1,11.19-1.26H300a10.94,10.94,0,0,0-3.47-8.51q-3.46-3.15-10-3.15A20,20,0,0,0,280,77.3a19.71,19.71,0,0,0-6.72,4.2l-8.93-9a34.29,34.29,0,0,1,11.19-7.14,35.13,35.13,0,0,1,13.08-2.52,29.85,29.85,0,0,1,11.22,2,23,23,0,0,1,13.53,14.08A41.58,41.58,0,0,1,315,91.48Zm27.21,0H326.89V64.27h15.34Zm.21-71.34H326.68V38h15.76ZM446,125.1H430.9V88.85q0-6.41-3.1-9.72a10.06,10.06,0,0,0-7.62-3.3,18.42,18.42,0,0,0-12.6,4.72,33.48,33.48,0,0,1,.94,8.3V125.1H393.39V88.85q0-6.41-3.1-9.72a9.92,9.92,0,0,0-7.51-3.3,14.51,14.51,0,0,0-6.09,1.2,21.59,21.59,0,0,0-5.46,3.84V125.1H356.1V64.37h15.13v4.52a22.71,22.71,0,0,1,6.68-4.41,19.37,19.37,0,0,1,7.84-1.68,21.88,21.88,0,0,1,8.89,2,23,23,0,0,1,7.83,5.78,28.23,28.23,0,0,1,20.2-7.77,28.16,28.16,0,0,1,9,1.42,19,19,0,0,1,7.41,4.51,22.43,22.43,0,0,1,5.05,7.88A31.34,31.34,0,0,1,446,88.12Zm74-27.42c-.11,1-.23,2.13-.37,3.25H471.13a20.56,20.56,0,0,0,2.37,5,16.38,16.38,0,0,0,3.73,4.1,17.35,17.35,0,0,0,5,2.73,17.93,17.93,0,0,0,6.14,1,24.83,24.83,0,0,0,8.2-1.42,20.1,20.1,0,0,0,6.83-3.83l9.56,9.56a42.74,42.74,0,0,1-12.35,6.67,41.59,41.59,0,0,1-12.76,1.94,32.63,32.63,0,0,1-23.06-9.35,31.76,31.76,0,0,1-6.88-10.14,32,32,0,0,1,0-24.89,31.42,31.42,0,0,1,6.93-10.14,33.44,33.44,0,0,1,10.29-6.83,31.73,31.73,0,0,1,12.61-2.52A32.77,32.77,0,0,1,500,65.16a33.41,33.41,0,0,1,10.4,6.57,30.63,30.63,0,0,1,9.77,22.9C520.19,95.61,520.14,96.63,520,97.68Z" style="fill:#e64896"/><path d="M498,79.45a16.47,16.47,0,0,0-10.34-3.52,16.11,16.11,0,0,0-10.19,3.52,18.3,18.3,0,0,0-6.31,9.3h33.2A18.21,18.21,0,0,0,498,79.45Z" style="fill:#e64896"/></svg>