<?xml version="1.0" standalone="no"?>
<!DOCTYPE svg PUBLIC "-//W3C//DTD SVG 20010904//EN"
 "http://www.w3.org/TR/2001/REC-SVG-20010904/DTD/svg10.dtd">
<svg version="1.0" xmlns="http://www.w3.org/2000/svg"
 width="700.000000pt" height="700.000000pt" viewBox="0 0 700.000000 700.000000"
 preserveAspectRatio="xMidYMid meet">
<metadata>
Created by potrace 1.14, written by Peter Selinger 2001-2017
</metadata>
<g transform="translate(0.000000,700.000000) scale(0.100000,-0.100000)"
fill="#000000" stroke="none">
<path d="M3363 6538 c-110 -37 -152 -78 -263 -254 -30 -48 -71 -112 -91 -143
-20 -31 -120 -189 -224 -351 -103 -162 -207 -324 -230 -360 -23 -36 -226 -353
-450 -705 -225 -352 -427 -669 -450 -705 -23 -36 -142 -222 -265 -415 -233
-365 -563 -882 -668 -1045 -33 -52 -107 -168 -164 -258 -57 -89 -119 -187
-138 -217 -361 -567 -366 -576 -396 -690 -19 -73 -25 -238 -12 -325 44 -305
330 -576 656 -623 125 -17 5607 -15 5702 2 36 7 98 26 138 42 307 122 498 410
488 734 -7 203 -32 262 -279 647 -45 71 -163 255 -262 410 -99 156 -202 318
-230 360 -27 43 -78 121 -112 175 -35 54 -92 143 -128 198 -36 55 -70 109 -75
120 -5 11 -115 184 -244 385 -229 355 -347 540 -946 1480 -62 96 -149 234
-195 305 -46 72 -101 157 -121 190 -21 33 -62 98 -92 145 -105 163 -140 216
-268 418 -71 111 -151 237 -177 280 -75 121 -141 176 -249 207 -73 21 -181 18
-255 -7z m273 -1278 c71 -110 136 -212 144 -225 8 -14 71 -113 140 -220 430
-671 552 -863 554 -871 0 -4 -219 -7 -487 -7 l-488 0 -328 -438 -327 -437 -84
145 c-47 80 -95 161 -107 181 -13 21 -31 53 -42 72 -11 19 -57 100 -104 179
l-85 144 81 126 c44 69 110 172 146 229 144 226 170 265 314 492 82 129 168
264 192 300 23 36 86 135 140 220 54 85 117 185 141 221 24 36 46 73 50 82 3
9 9 15 13 12 4 -2 66 -94 137 -205z"/>
</g>
</svg>
